<svg version="1.1" id="Layer_1" xmlns="http://www.w3.org/2000/svg" xmlns:xlink="http://www.w3.org/1999/xlink" x="0px" y="0px"
	 width="100%" viewBox="0 0 947 258" enable-background="new 0 0 947 258" xml:space="preserve">
<path fill="#FFFEFF" opacity="1.000000" stroke="none" 
	d="
M625.000000,259.000000 
	C416.666656,259.000000 208.833328,259.000000 1.000000,259.000000 
	C1.000000,173.000000 1.000000,87.000000 1.000000,1.000000 
	C316.666656,1.000000 632.333313,1.000000 948.000000,1.000000 
	C948.000000,87.000000 948.000000,173.000000 948.000000,259.000000 
	C840.500000,259.000000 733.000000,259.000000 625.000000,259.000000 
M394.882568,97.057709 
	C394.882568,97.057709 394.732727,97.131523 394.867218,97.572090 
	C394.867218,97.572090 395.122742,97.955368 395.337585,98.624199 
	C404.889282,111.436935 414.441010,124.249672 424.122192,137.236099 
	C422.027527,140.370255 420.127686,143.643753 417.816803,146.595428 
	C408.276154,158.781586 398.610901,170.870178 388.524506,183.427826 
	C388.776398,183.961060 389.014893,184.950638 389.282135,184.958466 
	C392.760803,185.060333 396.250793,185.162140 399.723236,184.981567 
	C403.201294,184.800720 406.662811,184.302826 410.711639,183.534546 
	C410.859589,183.064957 410.903198,182.523148 411.170898,182.136459 
	C416.282440,174.752014 421.372559,167.351837 426.576385,160.032654 
	C428.654144,157.110291 430.994934,154.374969 433.453583,151.252808 
	C441.304230,162.621826 448.693176,173.322189 456.443481,184.808929 
	C464.401489,184.808929 472.359528,184.808929 480.898407,184.808929 
	C479.642822,183.465012 478.879669,182.648163 478.063843,181.934509 
	C478.063843,181.934509 478.176361,181.962128 477.989197,181.388596 
	C477.671265,181.192383 477.353363,180.996170 476.930603,180.128769 
	C465.936584,165.762177 454.942596,151.395599 443.807465,136.844574 
	C445.716492,134.199448 447.424286,131.727676 449.239777,129.337753 
	C454.441467,122.490242 459.686127,115.675400 464.915222,108.848724 
	C467.625336,105.310570 470.338196,101.774559 473.600159,98.032890 
	C473.786316,97.698334 473.972443,97.363770 474.044159,97.037628 
	C474.044159,97.037628 474.070465,97.149330 474.627563,96.804337 
	C474.845612,96.234367 475.063660,95.664398 475.367157,95.303314 
	C475.367157,95.303314 475.586182,95.248932 476.025513,94.896393 
	C476.469330,94.277534 476.913177,93.658676 477.698975,92.562981 
	C470.458374,92.562981 463.747437,92.513870 457.039398,92.630745 
	C456.278107,92.644012 455.533081,93.590553 454.193237,94.428406 
	C447.789490,103.992706 441.385742,113.557007 434.726532,123.502861 
	C428.395325,114.245773 422.480042,105.596825 416.343933,96.319183 
	C415.921967,95.828033 415.500031,95.336884 415.054443,94.954308 
	C415.054443,94.954308 415.165558,94.955856 414.985779,94.390282 
	C414.684479,94.195717 414.383179,94.001160 414.226471,93.901802 
	C414.226471,93.901802 414.310547,93.750504 413.993469,93.017563 
	C406.432648,93.017563 398.871857,93.017563 389.968658,93.017563 
	C391.873016,94.553261 392.875122,95.361366 393.921204,96.069359 
	C393.921204,96.069359 393.812561,96.056404 393.996429,96.606140 
	C394.306580,96.810349 394.616730,97.014549 394.882568,97.057709 
M362.987366,184.569656 
	C363.306122,184.658600 363.624878,184.747543 364.878632,184.974213 
	C370.845001,184.974213 376.811371,184.974213 383.157013,184.974213 
	C382.694824,183.349976 382.427490,182.086502 381.980682,180.890060 
	C377.322876,168.417496 372.656036,155.948227 367.953156,143.492615 
	C360.341461,123.333000 352.682526,103.191193 345.082123,83.027328 
	C342.352722,75.786125 339.663483,68.527878 337.104767,61.225250 
	C336.205994,58.660160 334.860260,57.797672 332.048920,57.911228 
	C325.243927,58.186096 318.420319,58.000507 311.604919,58.000507 
	C306.526825,71.094803 301.400848,83.960777 296.548492,96.929138 
	C292.183502,108.595192 288.248840,120.422188 283.890076,132.090683 
	C277.773285,148.465332 271.439636,164.758987 264.945404,181.854492 
	C264.617889,182.721207 264.290344,183.587936 263.761536,184.987350 
	C270.218842,184.987350 276.215820,185.053772 282.206787,184.894470 
	C282.877258,184.876648 283.513733,183.578308 284.725769,182.414368 
	C288.157471,172.315292 291.589203,162.216232 295.950684,152.022522 
	C314.629608,152.047623 333.308563,152.072708 352.272980,152.784317 
	C352.908630,154.869141 353.544281,156.953964 354.033325,159.790390 
	C356.660706,166.910110 359.288086,174.029831 361.941498,181.028397 
	C361.941498,181.028397 361.817749,181.022156 361.908813,181.712631 
	C362.246307,182.523239 362.583801,183.333862 362.930023,184.042862 
	C362.930023,184.042862 362.829315,184.058929 362.987366,184.569656 
M45.146954,199.669571 
	C45.744064,199.857330 46.341175,200.045074 46.933949,200.098389 
	C46.933949,200.098389 46.805798,200.139267 47.158836,200.706467 
	C48.765594,201.427887 50.372353,202.149307 52.667503,203.096680 
	C56.308514,205.191605 60.388908,206.779419 63.505432,209.479675 
	C71.766685,216.637497 79.628014,224.258331 87.613831,231.731964 
	C91.001930,234.902802 94.979828,237.710083 97.517357,241.473129 
	C105.125641,252.755920 119.427567,253.869537 127.927063,248.161438 
	C134.129150,243.996292 140.072998,238.842621 144.628708,232.964539 
	C152.406509,222.929031 162.076309,215.409943 172.533478,208.711639 
	C178.705856,204.757935 185.274353,201.423462 191.657257,197.797379 
	C195.023346,195.885117 198.156021,193.196960 201.768433,192.146576 
	C217.294418,187.632172 224.940582,170.518982 217.480026,156.150696 
	C209.844284,141.444992 201.423004,127.146561 193.316620,112.686096 
	C187.086914,101.573296 180.734283,90.528725 174.578796,79.375175 
	C168.018204,67.487595 161.754135,55.435238 155.114258,43.592941 
	C150.582443,35.510399 145.866837,27.508390 140.791931,19.759501 
	C136.172272,12.705722 129.415771,7.944108 121.440742,5.411223 
	C118.859528,4.591426 115.599686,5.345397 112.782013,5.971956 
	C109.051491,6.801504 104.384003,7.164126 102.005348,9.582546 
	C96.230873,15.453587 91.027130,22.062300 86.560417,28.996679 
	C81.478920,36.885506 77.558899,45.513653 72.933800,53.707424 
	C66.404823,65.274101 59.571239,76.669510 53.090900,88.262810 
	C46.200581,100.589554 39.612827,113.085007 32.813080,125.462921 
	C27.696335,134.777161 22.061188,143.831802 17.430002,153.377136 
	C15.066292,158.248978 12.876195,164.073318 13.307736,169.241669 
	C14.067813,178.344727 17.410458,186.943481 27.430265,191.549118 
	C28.927900,192.109512 30.425535,192.669907 31.936924,193.108871 
	C31.936924,193.108871 31.817238,193.133591 32.193436,193.694565 
	C33.029800,193.938278 33.866161,194.182007 34.756432,194.400726 
	C34.756432,194.400726 34.812977,194.382462 35.125088,194.963486 
	C37.053082,195.725143 38.981079,196.486786 40.926342,197.122467 
	C40.926342,197.122467 40.801991,197.148972 41.185493,197.707336 
	C42.430614,198.215851 43.675739,198.724380 44.930847,199.107178 
	C44.930847,199.107178 44.808216,199.136673 45.146954,199.669571 
M727.974426,183.526230 
	C727.974426,183.526230 727.897522,183.038254 728.066467,182.109390 
	C728.002930,162.723129 727.939331,143.336853 727.974243,123.269905 
	C727.675415,122.703827 727.376587,122.137741 727.228943,120.752861 
	C727.137390,108.862793 720.526184,96.064041 703.749573,91.245659 
	C693.994812,88.993004 684.420471,89.566673 674.286499,93.016563 
	C663.773499,96.547607 656.850891,103.686516 652.899841,114.829536 
	C652.578308,116.469437 652.256836,118.109337 651.883484,120.013527 
	C657.402588,120.013527 662.298706,120.131165 667.181030,119.924515 
	C668.295105,119.877350 669.361755,118.710159 670.875183,117.488571 
	C673.304077,114.012306 675.132019,109.748901 678.343140,107.297058 
	C681.150696,105.153366 685.591614,104.028458 689.170776,104.300064 
	C693.613708,104.637215 698.446655,106.053978 702.157837,108.469208 
	C709.064392,112.964035 708.990845,120.700096 708.744446,128.864029 
	C701.193787,128.924026 693.635193,128.800781 686.096008,129.126282 
	C682.657043,129.274750 679.256287,130.308899 675.107056,131.029434 
	C673.392944,131.509766 671.704956,132.248245 669.960083,132.425232 
	C662.828796,133.148575 658.225586,137.677246 653.388611,142.953613 
	C653.220398,143.290054 653.052124,143.626480 652.964294,143.960938 
	C652.964294,143.960938 652.934204,143.886322 652.407837,144.354309 
	C647.701233,151.983948 646.966309,159.850342 651.178406,168.682632 
	C658.456055,182.623840 673.848083,189.746140 689.362671,185.973679 
	C693.302979,185.015579 697.059692,183.101685 700.724182,181.273193 
	C703.657532,179.809586 706.323181,177.809616 709.005920,176.958145 
	C709.005920,179.537704 709.005920,182.117264 709.005920,185.480469 
	C715.578003,184.966309 721.716858,184.486038 727.974426,183.526230 
M889.072693,179.261322 
	C888.727661,178.644379 888.382629,178.027451 888.172607,176.694122 
	C886.791260,173.631348 885.208435,170.641403 884.069519,167.490997 
	C881.516418,160.428802 879.295532,153.246445 876.738525,146.185745 
	C871.429321,131.525253 866.048279,116.890106 860.585266,102.286247 
	C856.161804,90.461403 851.575134,78.697586 847.011963,66.208412 
	C846.361511,64.763367 845.710999,63.318317 845.053772,61.979511 
	C845.053772,61.979511 845.159790,61.969952 845.053833,61.164490 
	C844.556030,59.806339 844.058228,58.448189 843.553589,57.071320 
	C835.726990,57.071320 828.100830,57.071320 819.987549,57.071320 
	C819.268555,59.666302 818.535522,62.311962 817.907227,64.946213 
	C817.907227,64.946213 817.863525,64.850334 817.210449,65.102211 
	C816.761658,66.430031 816.312927,67.757851 815.289001,69.547012 
	C814.462036,72.530663 813.852844,75.595665 812.773438,78.485016 
	C804.734192,100.003922 796.585022,121.481728 788.504761,142.985367 
	C783.632690,155.951065 778.822205,168.939911 773.289124,182.217255 
	C772.931152,183.042618 772.573120,183.867966 772.084900,184.993713 
	C778.413696,184.993713 784.224792,185.083282 790.027771,184.906281 
	C791.005249,184.876465 791.947571,183.695557 793.058167,182.639374 
	C793.058167,182.639374 793.060547,182.204758 793.714600,181.873260 
	C796.656494,172.935226 799.598389,163.997192 803.044800,154.586472 
	C803.712769,153.691711 804.380676,152.796967 805.974976,152.001770 
	C823.652283,151.998672 841.329529,151.995575 859.496948,152.533905 
	C863.085876,162.714417 866.674866,172.894928 870.314392,183.882202 
	C877.159302,184.402298 884.004150,184.922409 891.868591,185.519974 
	C890.482666,182.755112 889.764221,181.321762 889.033020,180.003677 
	C889.033020,180.003677 889.148865,180.009094 889.072693,179.261322 
M622.477844,93.935165 
	C622.477844,93.935165 622.029297,94.102570 621.348572,94.185226 
	C618.226990,97.287041 615.150024,100.436188 611.950012,103.454796 
	C611.221802,104.141731 610.067322,104.376892 609.072693,103.954369 
	C609.072693,100.356155 609.072693,96.757942 609.072693,93.306541 
	C602.513062,93.306541 596.295776,93.306541 590.170410,93.306541 
	C590.170410,123.795135 590.170410,153.912827 590.454773,184.843369 
	C596.543274,184.843369 602.631714,184.843369 608.967896,184.843369 
	C608.967896,164.051636 608.967896,143.536194 609.197693,122.360840 
	C612.466125,115.644730 617.685547,111.401146 625.960266,109.995903 
	C630.912109,109.995903 635.863953,109.995903 640.972290,109.995903 
	C640.972290,103.215553 640.972290,97.186432 640.972290,89.682266 
	C634.539917,91.197891 628.716553,92.570023 622.969543,93.971161 
	C622.969543,93.971161 622.954590,93.890808 622.477844,93.935165 
M905.498474,184.994980 
	C905.498474,184.994980 905.967468,184.900909 906.509094,185.029160 
	C906.687805,184.979248 906.866516,184.929352 907.971130,184.978531 
	C913.237183,184.978531 918.503174,184.978531 923.727173,184.978531 
	C923.727173,142.045837 923.727173,99.657448 923.727173,57.123859 
	C917.318848,57.123859 911.184814,57.123859 904.222839,57.388077 
	C904.170105,99.261757 904.113098,141.135437 904.104858,183.009140 
	C904.104736,183.633118 904.710754,184.257217 905.498474,184.994980 
M572.998657,148.576447 
	C576.102783,134.766617 573.346008,121.837875 566.715698,109.660103 
	C565.125977,106.740364 562.824036,103.693871 560.053894,102.032936 
	C553.190613,97.917892 546.247375,94.210976 538.134644,92.173706 
	C529.132935,89.913185 520.222107,90.957413 512.520020,93.368950 
	C498.589600,97.730614 488.315033,106.998161 484.347626,122.661255 
	C480.885498,136.329681 481.362518,149.482285 486.722931,161.857040 
	C494.284119,179.312378 509.671204,186.553619 527.820007,186.756683 
	C536.691589,186.855942 545.636719,184.892609 553.697327,179.436890 
	C564.645325,172.026855 571.832153,162.860382 572.998657,148.576447 
M763.078064,168.577576 
	C762.273315,167.352615 761.746521,165.537003 760.615784,165.004837 
	C755.700562,162.691650 750.607788,161.955536 745.560425,164.849945 
	C741.051270,167.435699 741.553955,171.923584 741.915649,175.906067 
	C742.342957,180.609985 745.908203,183.543289 750.083984,184.830856 
	C753.963562,186.027100 757.841980,184.886917 760.985596,181.974976 
	C764.936646,178.315079 765.585999,174.012665 763.078064,168.577576 
z"/>
<path fill="#813787" opacity="1.000000" stroke="none" 
	d="
M27.027241,190.994278 
	C17.410458,186.943481 14.067813,178.344727 13.307736,169.241669 
	C12.876195,164.073318 15.066292,158.248978 17.430002,153.377136 
	C22.061188,143.831802 27.696335,134.777161 32.813080,125.462921 
	C39.612827,113.085007 46.200581,100.589554 53.090900,88.262810 
	C59.571239,76.669510 66.404823,65.274101 72.933800,53.707424 
	C77.558899,45.513653 81.478920,36.885506 86.560417,28.996679 
	C91.027130,22.062300 96.230873,15.453587 102.005348,9.582546 
	C104.384003,7.164126 109.051491,6.801504 112.782013,5.971956 
	C115.599686,5.345397 118.859528,4.591426 121.440742,5.411223 
	C129.415771,7.944108 136.172272,12.705722 140.791931,19.759501 
	C145.866837,27.508390 150.582443,35.510399 155.114258,43.592941 
	C161.754135,55.435238 168.018204,67.487595 174.578796,79.375175 
	C180.734283,90.528725 187.086914,101.573296 193.316620,112.686096 
	C201.423004,127.146561 209.844284,141.444992 217.480026,156.150696 
	C224.940582,170.518982 217.294418,187.632172 201.768433,192.146576 
	C198.156021,193.196960 195.023346,195.885117 191.657257,197.797379 
	C185.274353,201.423462 178.705856,204.757935 172.533478,208.711639 
	C162.076309,215.409943 152.406509,222.929031 144.628708,232.964539 
	C140.072998,238.842621 134.129150,243.996292 127.927063,248.161438 
	C119.427567,253.869537 105.125641,252.755920 97.517357,241.473129 
	C94.979828,237.710083 91.001930,234.902802 87.613831,231.731964 
	C79.628014,224.258331 71.766685,216.637497 63.505432,209.479675 
	C60.388908,206.779419 56.308514,205.191605 52.260689,202.638306 
	C50.171185,201.499695 48.488491,200.819473 46.805801,200.139252 
	C46.805798,200.139267 46.933949,200.098389 46.810135,199.851166 
	C46.060284,199.448181 45.434250,199.292435 44.808216,199.136673 
	C44.808216,199.136673 44.930847,199.107178 44.830978,198.809692 
	C43.421402,198.057800 42.111698,197.603394 40.801991,197.148972 
	C40.801991,197.148972 40.926342,197.122467 40.834858,196.824615 
	C38.766575,195.811996 36.789776,195.097229 34.812977,194.382462 
	C34.812977,194.382462 34.756432,194.400726 34.673988,194.044250 
	C33.666779,193.503036 32.742008,193.318314 31.817238,193.133591 
	C31.817238,193.133591 31.936924,193.108871 31.833458,192.807129 
	C30.162409,192.001678 28.594826,191.497986 27.027241,190.994278 
M115.278946,24.533083 
	C111.384750,23.153486 109.849319,26.344847 108.314590,28.600689 
	C105.701553,32.441505 103.623459,36.647572 101.340576,40.711391 
	C97.970520,46.710506 94.604942,52.712212 91.261246,58.726044 
	C87.120529,66.173347 83.092842,73.685112 78.850578,81.073860 
	C75.120636,87.570282 71.001015,93.845291 67.343269,100.380295 
	C62.093166,109.760223 57.101192,119.284744 52.008228,128.752502 
	C45.522198,140.809937 38.864513,152.782425 32.772396,165.035919 
	C31.923195,166.743988 33.089748,170.828827 34.687931,172.107071 
	C38.612225,175.245789 43.059452,178.225067 47.786106,179.770554 
	C60.378139,183.887924 71.159065,191.231644 80.940521,199.467270 
	C92.444313,209.153000 102.353569,220.725464 113.091797,231.340652 
	C113.977226,232.215927 116.223465,232.699097 117.302238,232.202301 
	C120.086403,230.920181 122.844543,229.290863 125.114700,227.246750 
	C129.223740,223.546829 133.092484,219.556915 136.843552,215.487167 
	C145.636597,205.947098 155.517944,197.653625 166.535645,190.924255 
	C175.655075,185.354324 185.272964,180.570328 194.840851,175.779312 
	C198.801743,173.795929 201.906052,168.596863 199.847748,164.583374 
	C193.174484,151.571106 186.264557,138.676590 179.246445,125.845734 
	C171.400269,111.500916 163.325821,97.281052 155.371155,82.995430 
	C150.803741,74.792915 146.353271,66.524368 141.710892,58.364773 
	C136.773590,49.686779 132.084091,40.819332 126.448326,32.609940 
	C124.036003,29.096010 119.503685,27.037472 115.278946,24.533083 
z"/>
<path fill="#803787" opacity="1.000000" stroke="none" 
	d="
M354.179932,159.038773 
	C353.544281,156.953964 352.908630,154.869141 351.876740,152.102310 
	C350.837799,151.283554 350.195251,151.028183 349.552368,151.027359 
	C332.574097,151.005737 315.595734,150.988037 298.617706,151.058197 
	C297.417328,151.063171 296.219788,151.748291 295.020905,152.117157 
	C291.589203,162.216232 288.157471,172.315292 284.044250,182.811493 
	C278.264771,183.467957 273.165741,183.882751 268.069733,183.849106 
	C267.106689,183.842773 266.155457,182.053726 265.198761,181.087280 
	C271.439636,164.758987 277.773285,148.465332 283.890076,132.090683 
	C288.248840,120.422188 292.183502,108.595192 296.548492,96.929138 
	C301.400848,83.960777 306.526825,71.094803 311.604919,58.000507 
	C318.420319,58.000507 325.243927,58.186096 332.048920,57.911228 
	C334.860260,57.797672 336.205994,58.660160 337.104767,61.225250 
	C339.663483,68.527878 342.352722,75.786125 345.082123,83.027328 
	C352.682526,103.191193 360.341461,123.333000 367.953156,143.492615 
	C372.656036,155.948227 377.322876,168.417496 381.980682,180.890060 
	C382.427490,182.086502 382.694824,183.349976 383.157013,184.974213 
	C376.811371,184.974213 370.845001,184.974213 364.287537,184.701691 
	C363.447601,184.211594 363.158569,184.088196 362.829315,184.058929 
	C362.829315,184.058929 362.930023,184.042862 362.942444,183.725418 
	C362.575836,182.612701 362.196777,181.817429 361.817749,181.022156 
	C361.817749,181.022156 361.941498,181.028397 361.956726,180.672607 
	C360.128815,174.166290 358.347351,167.995972 356.384430,161.883926 
	C356.039642,160.810272 354.934174,159.980927 354.179932,159.038773 
M302.473511,135.464767 
	C316.141022,135.599670 329.808441,135.746643 343.476288,135.820770 
	C343.969666,135.823456 344.466949,135.108963 345.024109,133.964249 
	C342.290833,126.113609 339.567230,118.259575 336.821930,110.413147 
	C333.020508,99.548111 329.229248,88.679298 325.348969,77.842400 
	C324.980621,76.813576 324.011047,76.000015 323.320557,75.086510 
	C322.871826,75.649216 322.239380,76.143692 322.001312,76.784660 
	C316.649445,91.192780 311.238586,105.580566 306.082306,120.058876 
	C304.384735,124.825401 303.366730,129.833939 302.473511,135.464767 
z"/>
<path fill="#813887" opacity="1.000000" stroke="none" 
	d="
M773.983948,181.918335 
	C778.822205,168.939911 783.632690,155.951065 788.504761,142.985367 
	C796.585022,121.481728 804.734192,100.003922 812.773438,78.485016 
	C813.852844,75.595665 814.462036,72.530663 815.917847,69.178368 
	C816.985657,67.489922 817.424561,66.170120 817.863525,64.850327 
	C817.863525,64.850334 817.907227,64.946213 818.182129,64.790588 
	C819.894592,58.373081 824.255493,57.199394 829.845642,57.989697 
	C831.299622,58.195255 832.813599,58.107483 834.289307,58.002705 
	C838.520752,57.702248 842.610352,57.699089 845.159790,61.969952 
	C845.159790,61.969952 845.053772,61.979511 845.048340,62.298237 
	C845.715576,64.046875 846.388245,65.476784 847.060913,66.906677 
	C851.575134,78.697586 856.161804,90.461403 860.585266,102.286247 
	C866.048279,116.890106 871.429321,131.525253 876.738525,146.185745 
	C879.295532,153.246445 881.516418,160.428802 884.069519,167.490997 
	C885.208435,170.641403 886.791260,173.631348 888.120483,177.435303 
	C888.428528,178.787354 888.788696,179.398224 889.148865,180.009094 
	C889.148865,180.009094 889.033020,180.003677 889.037842,180.380280 
	C888.175232,181.830063 887.307556,183.826035 886.440430,183.825836 
	C881.048157,183.824524 875.656006,183.375778 870.263855,183.075424 
	C866.674866,172.894928 863.085876,162.714417 859.351807,151.971893 
	C841.556335,151.310013 823.906006,151.204865 806.255615,151.143631 
	C805.854187,151.142242 805.450989,151.638245 805.048645,151.902222 
	C804.380676,152.796967 803.712769,153.691711 802.479126,154.930237 
	C798.962463,164.250931 796.011536,173.227844 793.060547,182.204758 
	C793.060547,182.204758 793.058167,182.639374 792.602722,183.002014 
	C786.656372,183.551102 781.165894,183.796799 775.673950,183.833801 
	C775.114929,183.837570 774.547485,182.586899 773.983948,181.918335 
M810.419189,135.246964 
	C810.853821,135.461517 811.287659,135.861755 811.723206,135.863647 
	C825.181885,135.922287 838.640686,135.947586 852.099365,135.917099 
	C852.314270,135.916611 852.527466,135.158386 852.938232,133.983521 
	C850.954895,127.657654 848.971558,121.331779 847.496094,114.574104 
	C845.521606,108.738838 843.656372,102.862907 841.508728,97.092056 
	C840.828613,95.264442 839.394775,93.717323 838.013977,91.302444 
	C836.204041,86.118095 834.394104,80.933746 832.173340,74.572601 
	C831.134827,76.750221 830.663757,77.559830 830.348877,78.426201 
	C827.413818,86.500977 824.515564,94.589134 821.587036,102.666283 
	C817.743408,113.267265 813.881897,123.861763 810.419189,135.246964 
z"/>
<path fill="#803786" opacity="1.000000" stroke="none" 
	d="
M709.116699,128.025391 
	C708.990845,120.700096 709.064392,112.964035 702.157837,108.469208 
	C698.446655,106.053978 693.613708,104.637215 689.170776,104.300064 
	C685.591614,104.028458 681.150696,105.153366 678.343140,107.297058 
	C675.132019,109.748901 673.304077,114.012306 670.226868,117.865372 
	C664.295349,118.576477 659.012146,118.910789 653.867004,119.236366 
	C653.556396,117.011780 653.350098,115.534203 653.143738,114.056625 
	C656.850891,103.686516 663.773499,96.547607 674.887024,93.327484 
	C684.927429,91.388756 694.447693,90.520737 704.102966,91.974205 
	C720.526184,96.064041 727.137390,108.862793 727.149536,121.498383 
	C727.338623,122.812805 727.607178,123.381706 727.875732,123.950592 
	C727.939331,143.336853 728.002930,162.723129 727.761658,182.648972 
	C727.207764,183.385590 727.019836,183.629730 726.432251,183.943756 
	C720.757385,183.966492 715.543457,183.966492 710.635559,183.966492 
	C710.018494,180.768265 709.563049,178.407959 709.107605,176.047668 
	C706.323181,177.809616 703.657532,179.809586 700.724182,181.273193 
	C697.059692,183.101685 693.302979,185.015579 689.362671,185.973679 
	C673.848083,189.746140 658.456055,182.623840 651.342285,168.115723 
	C651.268555,164.377319 650.642273,161.175812 650.884094,158.041290 
	C651.250061,153.298477 652.220581,148.602310 652.934204,143.886322 
	C652.934204,143.886322 652.964294,143.960938 653.195557,143.858826 
	C653.593628,143.416321 653.760498,143.075943 653.927368,142.735550 
	C658.225586,137.677246 662.828796,133.148575 669.960083,132.425232 
	C671.704956,132.248245 673.392944,131.509766 675.848755,131.040009 
	C683.514526,131.364975 690.436890,131.723389 697.363220,131.973068 
	C700.327515,132.079910 703.335144,132.227798 706.255432,131.843155 
	C708.004089,131.612854 711.164734,131.510178 709.116699,128.025391 
M707.102600,142.998749 
	C703.750732,143.296127 700.398865,143.593491 696.283752,144.059723 
	C695.507996,144.005661 694.732178,143.951599 693.385986,143.319412 
	C688.937439,143.952148 684.488831,144.584885 679.643066,145.817291 
	C670.436768,148.597366 665.972473,155.310715 669.026489,162.040283 
	C671.375610,167.216492 675.656982,170.326202 680.942566,172.055618 
	C688.586792,174.556778 694.832458,171.106583 700.815308,167.036774 
	C709.384155,161.207916 710.616821,153.672562 707.921082,143.357880 
	C707.921082,143.357880 707.990723,142.993668 708.242126,142.860840 
	C708.163696,142.910248 708.085205,142.959641 707.102600,142.998749 
z"/>
<path fill="#803886" opacity="1.000000" stroke="none" 
	d="
M573.000854,149.024216 
	C571.832153,162.860382 564.645325,172.026855 553.697327,179.436890 
	C545.636719,184.892609 536.691589,186.855942 527.820007,186.756683 
	C509.671204,186.553619 494.284119,179.312378 486.722931,161.857040 
	C481.362518,149.482285 480.885498,136.329681 484.347626,122.661255 
	C488.315033,106.998161 498.589600,97.730614 512.520020,93.368950 
	C520.222107,90.957413 529.132935,89.913185 538.134644,92.173706 
	C546.247375,94.210976 553.190613,97.917892 560.053894,102.032936 
	C562.824036,103.693871 565.125977,106.740364 566.715698,109.660103 
	C573.346008,121.837875 576.102783,134.766617 573.000854,149.024216 
M554.982849,129.333679 
	C554.390564,127.572334 553.798279,125.810997 552.937256,123.377121 
	C546.870972,109.765808 537.911072,105.934509 525.163940,107.212250 
	C518.197754,107.910522 511.341156,110.016060 507.236633,116.163231 
	C502.920563,122.627235 501.534546,130.204208 501.635132,137.956207 
	C501.844818,154.113937 503.879089,162.119873 519.718750,169.905655 
	C530.755371,175.330582 549.491028,167.875900 553.225586,154.682312 
	C557.325623,146.686935 556.773010,138.387665 554.956787,130.047043 
	C554.956787,130.047043 554.892090,130.158157 554.982849,129.333679 
z"/>
<path fill="#803786" opacity="1.000000" stroke="none" 
	d="
M388.991455,182.994629 
	C398.610901,170.870178 408.276154,158.781586 417.816803,146.595428 
	C420.127686,143.643753 422.027527,140.370255 424.122192,137.236099 
	C414.441010,124.249672 404.889282,111.436935 395.389648,98.173233 
	C395.205414,97.525352 394.969086,97.328430 394.732727,97.131516 
	C394.732727,97.131523 394.882568,97.057709 394.826111,96.855209 
	C394.450623,96.453941 394.131592,96.255173 393.812561,96.056404 
	C393.812561,96.056404 393.921204,96.069359 394.015717,95.708084 
	C395.559540,94.901466 396.994507,94.133774 398.460693,94.068703 
	C403.738312,93.834473 409.026398,93.837265 414.310547,93.750504 
	C414.310547,93.750504 414.226471,93.901802 414.239777,94.124603 
	C414.557251,94.550217 414.861389,94.753036 415.165558,94.955856 
	C415.165558,94.955856 415.054443,94.954308 415.071655,95.264969 
	C415.580841,96.033051 416.072784,96.490463 416.564728,96.947876 
	C422.480042,105.596825 428.395325,114.245773 434.726532,123.502861 
	C441.385742,113.557007 447.789490,103.992706 454.973846,94.252594 
	C457.887634,94.050117 460.031219,93.876869 462.151886,94.027122 
	C466.636322,94.344856 471.108795,94.831543 475.586182,95.248932 
	C475.586182,95.248932 475.367157,95.303314 475.009460,95.312012 
	C474.458008,95.930244 474.264252,96.539787 474.070496,97.149338 
	C474.070465,97.149330 474.044159,97.037628 473.823395,97.131699 
	C473.418365,97.563042 473.234100,97.900314 473.049866,98.237579 
	C470.338196,101.774559 467.625336,105.310570 464.915222,108.848724 
	C459.686127,115.675400 454.441467,122.490242 449.239777,129.337753 
	C447.424286,131.727676 445.716492,134.199448 443.807465,136.844574 
	C454.942596,151.395599 465.936584,165.762177 477.081848,180.737427 
	C477.547516,181.551422 477.861938,181.756775 478.176361,181.962128 
	C478.176361,181.962128 478.063843,181.934509 477.968872,182.290619 
	C476.415558,183.092926 474.966736,183.883865 473.497162,183.924545 
	C467.695679,184.085052 461.887695,184.010132 456.082123,184.022552 
	C448.693176,173.322189 441.304230,162.621826 433.453583,151.252808 
	C430.994934,154.374969 428.654144,157.110291 426.576385,160.032654 
	C421.372559,167.351837 416.282440,174.752014 411.170898,182.136459 
	C410.903198,182.523148 410.859589,183.064957 409.943268,183.731659 
	C402.447083,183.617401 395.719238,183.306015 388.991455,182.994629 
z"/>
<path fill="#813887" opacity="1.000000" stroke="none" 
	d="
M625.038513,109.861435 
	C617.685547,111.401146 612.466125,115.644730 608.776245,122.973679 
	C608.354858,143.550552 608.354858,163.514587 608.354858,183.944183 
	C602.221680,183.944183 597.129272,183.944183 592.023438,183.479202 
	C592.010071,153.437912 592.010071,123.861618 592.010071,94.386887 
	C597.317200,94.386887 602.396729,94.386887 607.982971,94.386887 
	C607.982971,96.710854 607.842773,98.686478 608.029724,100.630638 
	C608.166077,102.048576 608.733704,103.425041 609.109070,104.819992 
	C610.067322,104.376892 611.221802,104.141731 611.950012,103.454796 
	C615.150024,100.436188 618.226990,97.287041 621.788452,94.315781 
	C622.470398,94.261162 622.712524,94.075989 622.954590,93.890808 
	C622.954590,93.890808 622.969543,93.971161 623.354736,93.970695 
	C628.983826,93.205818 634.227722,92.441399 639.968079,91.604614 
	C639.968079,95.778954 639.848450,98.601517 639.995850,101.410057 
	C640.221497,105.710159 638.370300,107.136040 634.058533,107.213966 
	C631.036926,107.268578 628.044128,108.922020 625.038513,109.861435 
z"/>
<path fill="#813887" opacity="1.000000" stroke="none" 
	d="
M763.354492,168.865662 
	C765.585999,174.012665 764.936646,178.315079 760.985596,181.974976 
	C757.841980,184.886917 753.963562,186.027100 750.083984,184.830856 
	C745.908203,183.543289 742.342957,180.609985 741.915649,175.906067 
	C741.553955,171.923584 741.051270,167.435699 745.560425,164.849945 
	C750.607788,161.955536 755.700562,162.691650 760.615784,165.004837 
	C761.746521,165.537003 762.273315,167.352615 763.354492,168.865662 
z"/>
<path fill="#7B2F82" opacity="1.000000" stroke="none" 
	d="
M907.045166,184.879456 
	C906.866516,184.929352 906.687805,184.979248 906.177979,184.777725 
	C905.575806,184.644623 905.304871,184.762939 905.033875,184.881256 
	C904.710754,184.257217 904.104736,183.633118 904.104858,183.009140 
	C904.113098,141.135437 904.170105,99.261757 904.874634,57.538460 
	C907.020569,57.809345 908.514832,57.929848 909.955933,58.418022 
	C907.294556,61.218525 906.923218,64.253960 906.932556,67.690575 
	C907.030151,103.648193 906.948547,139.606339 907.080505,175.563721 
	C907.090759,178.362000 908.335938,181.155746 908.721313,183.986832 
	C907.972107,184.307861 907.508606,184.593658 907.045166,184.879456 
z"/>
<path fill="#711E76" opacity="1.000000" stroke="none" 
	d="
M609.090881,104.387177 
	C608.733704,103.425041 608.166077,102.048576 608.029724,100.630638 
	C607.842773,98.686478 607.982971,96.710854 607.982971,94.386887 
	C602.396729,94.386887 597.317200,94.386887 592.010071,94.386887 
	C592.010071,123.861618 592.010071,153.437912 591.712280,183.499359 
	C590.999817,183.999847 590.585083,184.015198 590.170410,184.030548 
	C590.170410,153.912827 590.170410,123.795135 590.170410,93.306541 
	C596.295776,93.306541 602.513062,93.306541 609.072693,93.306541 
	C609.072693,96.757942 609.072693,100.356155 609.090881,104.387177 
z"/>
<path fill="#58025F" opacity="1.000000" stroke="none" 
	d="
M907.508179,184.928986 
	C907.508606,184.593658 907.972107,184.307861 909.186401,184.005981 
	C914.176025,183.989914 918.414734,183.989914 922.666931,183.989914 
	C922.666931,141.596878 922.666931,100.093643 922.666931,58.050350 
	C918.232117,58.050350 914.120544,58.050350 910.009033,58.050350 
	C908.514832,57.929848 907.020569,57.809345 905.288574,57.406349 
	C911.184814,57.123859 917.318848,57.123859 923.727173,57.123859 
	C923.727173,99.657448 923.727173,142.045837 923.727173,184.978531 
	C918.503174,184.978531 913.237183,184.978531 907.508179,184.928986 
z"/>
<path fill="#711E76" opacity="1.000000" stroke="none" 
	d="
M625.499390,109.928673 
	C628.044128,108.922020 631.036926,107.268578 634.058533,107.213966 
	C638.370300,107.136040 640.221497,105.710159 639.995850,101.410057 
	C639.848450,98.601517 639.968079,95.778954 639.968079,91.604614 
	C634.227722,92.441399 628.983826,93.205818 623.316528,93.956192 
	C628.716553,92.570023 634.539917,91.197891 640.972290,89.682266 
	C640.972290,97.186432 640.972290,103.215553 640.972290,109.995903 
	C635.863953,109.995903 630.912109,109.995903 625.499390,109.928673 
z"/>
<path fill="#7B2F82" opacity="1.000000" stroke="none" 
	d="
M708.930542,128.444702 
	C711.164734,131.510178 708.004089,131.612854 706.255432,131.843155 
	C703.335144,132.227798 700.327515,132.079910 697.363220,131.973068 
	C690.436890,131.723389 683.514526,131.364975 676.214355,130.995972 
	C679.256287,130.308899 682.657043,129.274750 686.096008,129.126282 
	C693.635193,128.800781 701.193787,128.924026 708.930542,128.444702 
z"/>
<path fill="#53015A" opacity="1.000000" stroke="none" 
	d="
M590.312622,184.436951 
	C590.585083,184.015198 590.999817,183.999847 591.725647,183.964340 
	C597.129272,183.944183 602.221680,183.944183 608.354858,183.944183 
	C608.354858,163.514587 608.354858,143.550552 608.661377,123.303642 
	C608.967896,143.536194 608.967896,164.051636 608.967896,184.843369 
	C602.631714,184.843369 596.543274,184.843369 590.312622,184.436951 
z"/>
<path fill="#53015A" opacity="1.000000" stroke="none" 
	d="
M295.485779,152.069839 
	C296.219788,151.748291 297.417328,151.063171 298.617706,151.058197 
	C315.595734,150.988037 332.574097,151.005737 349.552368,151.027359 
	C350.195251,151.028183 350.837799,151.283554 351.734009,151.759064 
	C333.308563,152.072708 314.629608,152.047623 295.485779,152.069839 
z"/>
<path fill="#53015A" opacity="1.000000" stroke="none" 
	d="
M805.511841,151.951996 
	C805.450989,151.638245 805.854187,151.142242 806.255615,151.143631 
	C823.906006,151.204865 841.556335,151.310013 859.106689,151.701187 
	C841.329529,151.995575 823.652283,151.998672 805.511841,151.951996 
z"/>
<path fill="#711E76" opacity="1.000000" stroke="none" 
	d="
M652.671021,144.120316 
	C652.220581,148.602310 651.250061,153.298477 650.884094,158.041290 
	C650.642273,161.175812 651.268555,164.377319 651.252197,167.774872 
	C646.966309,159.850342 647.701233,151.983948 652.671021,144.120316 
z"/>
<path fill="#65136D" opacity="1.000000" stroke="none" 
	d="
M414.152008,93.384033 
	C409.026398,93.837265 403.738312,93.834473 398.460693,94.068703 
	C396.994507,94.133774 395.559540,94.901466 393.993713,95.758148 
	C392.875122,95.361366 391.873016,94.553261 389.968658,93.017563 
	C398.871857,93.017563 406.432648,93.017563 414.152008,93.384033 
z"/>
<path fill="#600C67" opacity="1.000000" stroke="none" 
	d="
M475.805847,95.072662 
	C471.108795,94.831543 466.636322,94.344856 462.151886,94.027122 
	C460.031219,93.876869 457.887634,94.050117 455.267487,94.090561 
	C455.533081,93.590553 456.278107,92.644012 457.039398,92.630745 
	C463.747437,92.513870 470.458374,92.562981 477.698975,92.562981 
	C476.913177,93.658676 476.469330,94.277534 475.805847,95.072662 
z"/>
<path fill="#711E76" opacity="1.000000" stroke="none" 
	d="
M793.387573,182.039001 
	C796.011536,173.227844 798.962463,164.250931 802.226807,155.166580 
	C799.598389,163.997192 796.656494,172.935226 793.387573,182.039001 
z"/>
<path fill="#600C67" opacity="1.000000" stroke="none" 
	d="
M845.106812,61.567223 
	C842.610352,57.699089 838.520752,57.702248 834.289307,58.002705 
	C832.813599,58.107483 831.299622,58.195255 829.845642,57.989697 
	C824.255493,57.199394 819.894592,58.373081 818.129761,64.796288 
	C818.535522,62.311962 819.268555,59.666302 819.987549,57.071320 
	C828.100830,57.071320 835.726990,57.071320 843.553589,57.071320 
	C844.058228,58.448189 844.556030,59.806339 845.106812,61.567223 
z"/>
<path fill="#65136D" opacity="1.000000" stroke="none" 
	d="
M703.926270,91.609932 
	C694.447693,90.520737 684.927429,91.388756 675.260681,93.358719 
	C684.420471,89.566673 693.994812,88.993004 703.926270,91.609932 
z"/>
<path fill="#65136D" opacity="1.000000" stroke="none" 
	d="
M354.106628,159.414581 
	C354.934174,159.980927 356.039642,160.810272 356.384430,161.883926 
	C358.347351,167.995972 360.128815,174.166290 361.943726,180.733185 
	C359.288086,174.029831 356.660706,166.910110 354.106628,159.414581 
z"/>
<path fill="#58025F" opacity="1.000000" stroke="none" 
	d="
M870.289124,183.478821 
	C875.656006,183.375778 881.048157,183.824524 886.440430,183.825836 
	C887.307556,183.826035 888.175232,181.830063 889.044250,180.322632 
	C889.764221,181.321762 890.482666,182.755112 891.868591,185.519974 
	C884.004150,184.922409 877.159302,184.402298 870.289124,183.478821 
z"/>
<path fill="#600C67" opacity="1.000000" stroke="none" 
	d="
M456.262817,184.415741 
	C461.887695,184.010132 467.695679,184.085052 473.497162,183.924545 
	C474.966736,183.883865 476.415558,183.092926 477.995209,182.239029 
	C478.879669,182.648163 479.642822,183.465012 480.898407,184.808929 
	C472.359528,184.808929 464.401489,184.808929 456.262817,184.415741 
z"/>
<path fill="#58025F" opacity="1.000000" stroke="none" 
	d="
M709.056763,176.502899 
	C709.563049,178.407959 710.018494,180.768265 710.635559,183.966492 
	C715.543457,183.966492 720.757385,183.966492 726.672791,183.971573 
	C727.374268,183.976654 727.855713,184.005768 727.855713,184.005768 
	C721.716858,184.486038 715.578003,184.966309 709.005920,185.480469 
	C709.005920,182.117264 709.005920,179.537704 709.056763,176.502899 
z"/>
<path fill="#600C67" opacity="1.000000" stroke="none" 
	d="
M653.021790,114.443085 
	C653.350098,115.534203 653.556396,117.011780 653.867004,119.236366 
	C659.012146,118.910789 664.295349,118.576477 670.014404,118.150314 
	C669.361755,118.710159 668.295105,119.877350 667.181030,119.924515 
	C662.298706,120.131165 657.402588,120.013527 651.883484,120.013527 
	C652.256836,118.109337 652.578308,116.469437 653.021790,114.443085 
z"/>
<path fill="#600C67" opacity="1.000000" stroke="none" 
	d="
M388.757965,183.211212 
	C395.719238,183.306015 402.447083,183.617401 409.653259,183.936340 
	C406.662811,184.302826 403.201294,184.800720 399.723236,184.981567 
	C396.250793,185.162140 392.760803,185.060333 389.282135,184.958466 
	C389.014893,184.950638 388.776398,183.961060 388.757965,183.211212 
z"/>
<path fill="#58025F" opacity="1.000000" stroke="none" 
	d="
M265.072083,181.470886 
	C266.155457,182.053726 267.106689,183.842773 268.069733,183.849106 
	C273.165741,183.882751 278.264771,183.467957 283.764343,183.041199 
	C283.513733,183.578308 282.877258,184.876648 282.206787,184.894470 
	C276.215820,185.053772 270.218842,184.987350 263.761536,184.987350 
	C264.290344,183.587936 264.617889,182.721207 265.072083,181.470886 
z"/>
<path fill="#58025F" opacity="1.000000" stroke="none" 
	d="
M773.636536,182.067795 
	C774.547485,182.586899 775.114929,183.837570 775.673950,183.833801 
	C781.165894,183.796799 786.656372,183.551102 792.526733,183.205566 
	C791.947571,183.695557 791.005249,184.876465 790.027771,184.906281 
	C784.224792,185.083282 778.413696,184.993713 772.084900,184.993713 
	C772.573120,183.867966 772.931152,183.042618 773.636536,182.067795 
z"/>
<path fill="#711E76" opacity="1.000000" stroke="none" 
	d="
M34.969032,194.672974 
	C36.789776,195.097229 38.766575,195.811996 40.826225,196.887604 
	C38.981079,196.486786 37.053082,195.725143 34.969032,194.672974 
z"/>
<path fill="#711E76" opacity="1.000000" stroke="none" 
	d="
M46.982319,200.422852 
	C48.488491,200.819473 50.171185,201.499695 51.916489,202.525330 
	C50.372353,202.149307 48.765594,201.427887 46.982319,200.422852 
z"/>
<path fill="#600C67" opacity="1.000000" stroke="none" 
	d="
M847.036377,66.557556 
	C846.388245,65.476784 845.715576,64.046875 845.051758,62.245117 
	C845.710999,63.318317 846.361511,64.763367 847.036377,66.557556 
z"/>
<path fill="#711E76" opacity="1.000000" stroke="none" 
	d="
M27.228752,191.271698 
	C28.594826,191.497986 30.162409,192.001678 31.826584,192.867844 
	C30.425535,192.669907 28.927900,192.109512 27.228752,191.271698 
z"/>
<path fill="#711E76" opacity="1.000000" stroke="none" 
	d="
M40.993744,197.428162 
	C42.111698,197.603394 43.421402,198.057800 44.825989,198.872559 
	C43.675739,198.724380 42.430614,198.215851 40.993744,197.428162 
z"/>
<path fill="#600C67" opacity="1.000000" stroke="none" 
	d="
M817.536987,64.976265 
	C817.424561,66.170120 816.985657,67.489922 816.205444,68.947693 
	C816.312927,67.757851 816.761658,66.430031 817.536987,64.976265 
z"/>
<path fill="#711E76" opacity="1.000000" stroke="none" 
	d="
M32.005337,193.414078 
	C32.742008,193.318314 33.666779,193.503036 34.647034,194.056747 
	C33.866161,194.182007 33.029800,193.938278 32.005337,193.414078 
z"/>
<path fill="#65136D" opacity="1.000000" stroke="none" 
	d="
M361.863281,181.367401 
	C362.196777,181.817429 362.575836,182.612701 362.938080,183.776230 
	C362.583801,183.333862 362.246307,182.523239 361.863281,181.367401 
z"/>
<path fill="#58025F" opacity="1.000000" stroke="none" 
	d="
M889.110779,179.635208 
	C888.788696,179.398224 888.428528,178.787354 888.052979,177.793503 
	C888.382629,178.027451 888.727661,178.644379 889.110779,179.635208 
z"/>
<path fill="#711E76" opacity="1.000000" stroke="none" 
	d="
M44.977585,199.403122 
	C45.434250,199.292435 46.060284,199.448181 46.812302,199.918396 
	C46.341175,200.045074 45.744064,199.857330 44.977585,199.403122 
z"/>
<path fill="#65136D" opacity="1.000000" stroke="none" 
	d="
M416.454346,96.633530 
	C416.072784,96.490463 415.580841,96.033051 415.083496,95.210686 
	C415.500031,95.336884 415.921967,95.828033 416.454346,96.633530 
z"/>
<path fill="#600C67" opacity="1.000000" stroke="none" 
	d="
M727.924988,123.610260 
	C727.607178,123.381706 727.338623,122.812805 727.073975,121.907784 
	C727.376587,122.137741 727.675415,122.703827 727.924988,123.610260 
z"/>
<path fill="#600C67" opacity="1.000000" stroke="none" 
	d="
M474.349030,96.976837 
	C474.264252,96.539787 474.458008,95.930244 474.966736,95.207565 
	C475.063660,95.664398 474.845612,96.234367 474.349030,96.976837 
z"/>
<path fill="#711E76" opacity="1.000000" stroke="none" 
	d="
M653.657959,142.844574 
	C653.760498,143.075943 653.593628,143.416321 653.155273,143.859802 
	C653.052124,143.626480 653.220398,143.290054 653.657959,142.844574 
z"/>
<path fill="#58025F" opacity="1.000000" stroke="none" 
	d="
M905.266174,184.938110 
	C905.304871,184.762939 905.575806,184.644623 905.907104,184.713593 
	C905.967468,184.900909 905.498474,184.994980 905.266174,184.938110 
z"/>
<path fill="#65136D" opacity="1.000000" stroke="none" 
	d="
M362.908325,184.314301 
	C363.158569,184.088196 363.447601,184.211594 363.820007,184.632812 
	C363.624878,184.747543 363.306122,184.658600 362.908325,184.314301 
z"/>
<path fill="#600C67" opacity="1.000000" stroke="none" 
	d="
M727.915039,183.765991 
	C727.855713,184.005768 727.374268,183.976654 727.133667,183.948822 
	C727.019836,183.629730 727.207764,183.385590 727.677185,183.113403 
	C727.897522,183.038254 727.974426,183.526230 727.915039,183.765991 
z"/>
<path fill="#65136D" opacity="1.000000" stroke="none" 
	d="
M415.075684,94.673065 
	C414.861389,94.753036 414.557251,94.550217 414.167480,94.076996 
	C414.383179,94.001160 414.684479,94.195717 415.075684,94.673065 
z"/>
<path fill="#711E76" opacity="1.000000" stroke="none" 
	d="
M622.716187,93.912994 
	C622.712524,94.075989 622.470398,94.261162 622.128784,94.274452 
	C622.029297,94.102570 622.477844,93.935165 622.716187,93.912994 
z"/>
<path fill="#600C67" opacity="1.000000" stroke="none" 
	d="
M478.082764,181.675354 
	C477.861938,181.756775 477.547516,181.551422 477.134277,181.073029 
	C477.353363,180.996170 477.671265,181.192383 478.082764,181.675354 
z"/>
<path fill="#600C67" opacity="1.000000" stroke="none" 
	d="
M473.325012,98.135239 
	C473.234100,97.900314 473.418365,97.563042 473.880615,97.127487 
	C473.972443,97.363770 473.786316,97.698334 473.325012,98.135239 
z"/>
<path fill="#65136D" opacity="1.000000" stroke="none" 
	d="
M394.799988,97.351807 
	C394.969086,97.328430 395.205414,97.525352 395.282227,97.838821 
	C395.122742,97.955368 394.867218,97.572090 394.799988,97.351807 
z"/>
<path fill="#65136D" opacity="1.000000" stroke="none" 
	d="
M393.904480,96.331268 
	C394.131592,96.255173 394.450623,96.453941 394.848267,96.935738 
	C394.616730,97.014549 394.306580,96.810349 393.904480,96.331268 
z"/>
<path fill="#FEFDFE" opacity="1.000000" stroke="none" 
	d="
M115.606796,24.425360 
	C119.503685,27.037472 124.036003,29.096010 126.448326,32.609940 
	C132.084091,40.819332 136.773590,49.686779 141.710892,58.364773 
	C146.353271,66.524368 150.803741,74.792915 155.371155,82.995430 
	C163.325821,97.281052 171.400269,111.500916 179.246445,125.845734 
	C186.264557,138.676590 193.174484,151.571106 199.847748,164.583374 
	C201.906052,168.596863 198.801743,173.795929 194.840851,175.779312 
	C185.272964,180.570328 175.655075,185.354324 166.535645,190.924255 
	C155.517944,197.653625 145.636597,205.947098 136.843552,215.487167 
	C133.092484,219.556915 129.223740,223.546829 125.114700,227.246750 
	C122.844543,229.290863 120.086403,230.920181 117.302238,232.202301 
	C116.223465,232.699097 113.977226,232.215927 113.091797,231.340652 
	C102.353569,220.725464 92.444313,209.153000 80.940521,199.467270 
	C71.159065,191.231644 60.378139,183.887924 47.786106,179.770554 
	C43.059452,178.225067 38.612225,175.245789 34.687931,172.107071 
	C33.089748,170.828827 31.923195,166.743988 32.772396,165.035919 
	C38.864513,152.782425 45.522198,140.809937 52.008228,128.752502 
	C57.101192,119.284744 62.093166,109.760223 67.343269,100.380295 
	C71.001015,93.845291 75.120636,87.570282 78.850578,81.073860 
	C83.092842,73.685112 87.120529,66.173347 91.261246,58.726044 
	C94.604942,52.712212 97.970520,46.710506 101.340576,40.711391 
	C103.623459,36.647572 105.701553,32.441505 108.314590,28.600689 
	C109.849319,26.344847 111.384750,23.153486 115.606796,24.425360 
M156.072754,113.479065 
	C156.072754,113.479065 155.903824,113.034981 155.851059,112.328323 
	C149.944336,102.653015 142.244202,94.978584 131.426865,90.971916 
	C121.884590,87.437531 112.329941,88.408775 102.592384,90.659523 
	C94.248131,92.588219 87.640770,97.017349 82.008575,103.001846 
	C75.720993,109.682747 72.975075,118.279106 72.661995,127.095825 
	C72.401978,134.418076 73.026718,142.222290 75.378761,149.086884 
	C79.462471,161.005508 88.781715,168.365860 100.520584,172.933136 
	C109.941246,176.598434 119.704048,175.960953 128.690338,173.504089 
	C138.031189,170.950317 146.319000,165.662186 152.247253,156.761276 
	C156.819534,149.896271 159.246460,143.119049 159.800751,134.709610 
	C158.893753,128.762390 157.986755,122.815178 157.085236,116.994270 
	C157.085236,116.994270 157.209503,116.970917 157.156006,116.278931 
	C156.792664,115.476036 156.429321,114.673134 156.057144,113.960693 
	C156.057144,113.960693 156.147186,113.948318 156.072754,113.479065 
z"/>
<path fill="#FCF9FC" opacity="1.000000" stroke="none" 
	d="
M302.037964,134.731812 
	C303.366730,129.833939 304.384735,124.825401 306.082306,120.058876 
	C311.238586,105.580566 316.649445,91.192780 322.001312,76.784660 
	C322.239380,76.143692 322.871826,75.649216 323.320557,75.086510 
	C324.011047,76.000015 324.980621,76.813576 325.348969,77.842400 
	C329.229248,88.679298 333.020508,99.548111 336.821930,110.413147 
	C339.567230,118.259575 342.290833,126.113609 344.527710,134.312912 
	C330.033539,134.684982 316.035736,134.708405 302.037964,134.731812 
z"/>
<path fill="#58025F" opacity="1.000000" stroke="none" 
	d="
M302.255737,135.098297 
	C316.035736,134.708405 330.033539,134.684982 344.496887,134.695129 
	C344.466949,135.108963 343.969666,135.823456 343.476288,135.820770 
	C329.808441,135.746643 316.141022,135.599670 302.255737,135.098297 
z"/>
<path fill="#FDFCFD" opacity="1.000000" stroke="none" 
	d="
M846.988220,115.005905 
	C848.971558,121.331779 850.954895,127.657654 852.393066,134.297577 
	C837.907959,134.560760 823.967957,134.509888 810.028076,134.459030 
	C813.881897,123.861763 817.743408,113.267265 821.587036,102.666283 
	C824.515564,94.589134 827.413818,86.500977 830.348877,78.426201 
	C830.663757,77.559830 831.134827,76.750221 832.173340,74.572601 
	C834.394104,80.933746 836.204041,86.118095 838.236816,92.018608 
	C841.302490,100.158485 844.145386,107.582199 846.988220,115.005905 
z"/>
<path fill="#58025F" opacity="1.000000" stroke="none" 
	d="
M810.223633,134.852997 
	C823.967957,134.509888 837.907959,134.560760 852.294678,134.682709 
	C852.527466,135.158386 852.314270,135.916611 852.099365,135.917099 
	C838.640686,135.947586 825.181885,135.922287 811.723206,135.863647 
	C811.287659,135.861755 810.853821,135.461517 810.223633,134.852997 
z"/>
<path fill="#711E76" opacity="1.000000" stroke="none" 
	d="
M847.242188,114.790009 
	C844.145386,107.582199 841.302490,100.158485 838.382690,92.388306 
	C839.394775,93.717323 840.828613,95.264442 841.508728,97.092056 
	C843.656372,102.862907 845.521606,108.738838 847.242188,114.790009 
z"/>
<path fill="#FDFCFD" opacity="1.000000" stroke="none" 
	d="
M693.956421,143.897522 
	C694.732178,143.951599 695.507996,144.005661 697.117798,144.020264 
	C701.281738,143.896576 704.611633,143.812347 707.941589,143.728119 
	C710.616821,153.672562 709.384155,161.207916 700.815308,167.036774 
	C694.832458,171.106583 688.586792,174.556778 680.942566,172.055618 
	C675.656982,170.326202 671.375610,167.216492 669.026489,162.040283 
	C665.972473,155.310715 670.436768,148.597366 680.265930,145.457672 
	C685.244690,144.697891 689.600525,144.297714 693.956421,143.897522 
z"/>
<path fill="#600C67" opacity="1.000000" stroke="none" 
	d="
M693.671204,143.608475 
	C689.600525,144.297714 685.244690,144.697891 680.464539,145.157837 
	C684.488831,144.584885 688.937439,143.952148 693.671204,143.608475 
z"/>
<path fill="#600C67" opacity="1.000000" stroke="none" 
	d="
M707.931335,143.542999 
	C704.611633,143.812347 701.281738,143.896576 697.499390,143.935837 
	C700.398865,143.593491 703.750732,143.296127 707.551270,142.999374 
	C708.000000,143.000000 707.990723,142.993668 707.990723,142.993668 
	C707.990723,142.993668 707.921082,143.357880 707.931335,143.542999 
z"/>
<path fill="#600C67" opacity="1.000000" stroke="none" 
	d="
M708.003418,143.004517 
	C708.085205,142.959641 708.163696,142.910248 708.116455,142.927246 
	C707.990723,142.993668 708.000000,143.000000 708.003418,143.004517 
z"/>
<path fill="#FEFDFE" opacity="1.000000" stroke="none" 
	d="
M552.486877,154.946777 
	C549.491028,167.875900 530.755371,175.330582 519.718750,169.905655 
	C503.879089,162.119873 501.844818,154.113937 501.635132,137.956207 
	C501.534546,130.204208 502.920563,122.627235 507.236633,116.163231 
	C511.341156,110.016060 518.197754,107.910522 525.163940,107.212250 
	C537.911072,105.934509 546.870972,109.765808 552.996338,124.080887 
	C553.667603,126.575829 554.279846,128.366989 554.892090,130.158173 
	C554.892090,130.158157 554.956787,130.047043 554.890381,130.494293 
	C554.044922,138.943283 553.265869,146.945038 552.486877,154.946777 
z"/>
<path fill="#600C67" opacity="1.000000" stroke="none" 
	d="
M552.856201,154.814545 
	C553.265869,146.945038 554.044922,138.943283 554.830933,130.469818 
	C556.773010,138.387665 557.325623,146.686935 552.856201,154.814545 
z"/>
<path fill="#600C67" opacity="1.000000" stroke="none" 
	d="
M554.937500,129.745926 
	C554.279846,128.366989 553.667603,126.575829 553.130676,124.417152 
	C553.798279,125.810997 554.390564,127.572334 554.937500,129.745926 
z"/>
<path fill="#813887" opacity="1.000000" stroke="none" 
	d="
M909.955933,58.418022 
	C914.120544,58.050350 918.232117,58.050350 922.666931,58.050350 
	C922.666931,100.093643 922.666931,141.596878 922.666931,183.989914 
	C918.414734,183.989914 914.176025,183.989914 909.472168,183.970764 
	C908.335938,181.155746 907.090759,178.362000 907.080505,175.563721 
	C906.948547,139.606339 907.030151,103.648193 906.932556,67.690575 
	C906.923218,64.253960 907.294556,61.218525 909.955933,58.418022 
z"/>
<path fill="#813887" opacity="1.000000" stroke="none" 
	d="
M159.030487,135.122726 
	C159.246460,143.119049 156.819534,149.896271 152.247253,156.761276 
	C146.319000,165.662186 138.031189,170.950317 128.690338,173.504089 
	C119.704048,175.960953 109.941246,176.598434 100.520584,172.933136 
	C88.781715,168.365860 79.462471,161.005508 75.378761,149.086884 
	C73.026718,142.222290 72.401978,134.418076 72.661995,127.095825 
	C72.975075,118.279106 75.720993,109.682747 82.008575,103.001846 
	C87.640770,97.017349 94.248131,92.588219 102.592384,90.659523 
	C112.329941,88.408775 121.884590,87.437531 131.426865,90.971916 
	C142.244202,94.978584 149.944336,102.653015 155.701675,112.778671 
	C155.750595,113.468788 155.948883,113.708557 156.147186,113.948318 
	C156.147186,113.948318 156.057144,113.960693 156.049469,114.283890 
	C156.431015,115.395035 156.820267,116.182976 157.209503,116.970917 
	C157.209503,116.970917 157.085236,116.994270 157.058594,117.373108 
	C157.698135,123.542206 158.364304,129.332458 159.030487,135.122726 
M133.882080,112.102684 
	C133.882080,112.102684 133.868759,112.243034 133.743362,111.664597 
	C133.412262,111.473671 133.081146,111.282745 132.931229,111.067276 
	C132.931229,111.067276 132.925735,111.250031 132.720978,110.658203 
	C132.155838,110.437424 131.590683,110.216644 130.303894,109.877113 
	C122.423599,103.401306 109.749290,104.919868 101.786987,109.618080 
	C96.694160,112.623138 94.851295,117.568382 91.321320,122.355278 
	C90.546364,126.645821 89.398476,130.916687 89.170639,135.236084 
	C89.072479,137.096893 90.879860,139.058212 92.058693,141.684204 
	C94.396561,145.273544 96.084541,149.630386 99.216270,152.282196 
	C104.659912,156.891632 111.417206,160.463776 118.731102,158.702621 
	C130.173615,155.947342 138.711227,149.362778 141.949692,136.740967 
	C142.274414,133.730392 143.509949,130.448532 142.712738,127.772133 
	C141.483292,123.644600 138.861557,119.931778 136.376083,115.905983 
	C136.084381,115.709465 135.952560,115.435913 135.920609,114.433525 
	C135.523407,113.985741 135.126221,113.537956 134.913452,113.076668 
	C134.913452,113.076668 134.890793,113.260201 134.741623,112.685822 
	C134.409576,112.503090 134.077545,112.320358 133.882080,112.102684 
z"/>
<path fill="#65136D" opacity="1.000000" stroke="none" 
	d="
M159.415619,134.916168 
	C158.364304,129.332458 157.698135,123.542206 157.055862,117.309952 
	C157.986755,122.815178 158.893753,128.762390 159.415619,134.916168 
z"/>
<path fill="#65136D" opacity="1.000000" stroke="none" 
	d="
M157.182770,116.624924 
	C156.820267,116.182976 156.431015,115.395035 156.053894,114.238663 
	C156.429321,114.673134 156.792664,115.476036 157.182770,116.624924 
z"/>
<path fill="#65136D" opacity="1.000000" stroke="none" 
	d="
M156.109970,113.713692 
	C155.948883,113.708557 155.750595,113.468788 155.728058,113.132004 
	C155.903824,113.034981 156.072754,113.479065 156.109970,113.713692 
z"/>
<path fill="#FEFDFE" opacity="1.000000" stroke="none" 
	d="
M141.204346,136.955750 
	C138.711227,149.362778 130.173615,155.947342 118.731102,158.702621 
	C111.417206,160.463776 104.659912,156.891632 99.216270,152.282196 
	C96.084541,149.630386 94.396561,145.273544 91.950134,140.932831 
	C89.334152,134.099426 91.082916,128.052444 91.991348,121.998543 
	C94.851295,117.568382 96.694160,112.623138 101.786987,109.618080 
	C109.749290,104.919868 122.423599,103.401306 130.811890,110.196655 
	C131.855179,110.760811 132.390457,111.005417 132.925735,111.250031 
	C132.925735,111.250031 132.931229,111.067276 132.912445,111.382065 
	C133.218674,111.878922 133.543716,112.060982 133.868759,112.243042 
	C133.868759,112.243034 133.882080,112.102684 133.835434,112.432510 
	C134.156128,112.928284 134.523453,113.094246 134.890793,113.260201 
	C134.890793,113.260201 134.913452,113.076668 134.854218,113.391624 
	C135.190186,114.166161 135.585403,114.625740 135.980621,115.085320 
	C135.952560,115.435913 136.084381,115.709465 136.721588,116.322266 
	C140.568481,123.043304 142.867981,129.594025 141.204346,136.955750 
z"/>
<path fill="#65136D" opacity="1.000000" stroke="none" 
	d="
M141.577026,136.848358 
	C142.867981,129.594025 140.568481,123.043304 136.948746,116.390793 
	C138.861557,119.931778 141.483292,123.644600 142.712738,127.772133 
	C143.509949,130.448532 142.274414,133.730392 141.577026,136.848358 
z"/>
<path fill="#711E76" opacity="1.000000" stroke="none" 
	d="
M91.656334,122.176910 
	C91.082916,128.052444 89.334152,134.099426 91.831566,140.577667 
	C90.879860,139.058212 89.072479,137.096893 89.170639,135.236084 
	C89.398476,130.916687 90.546364,126.645821 91.656334,122.176910 
z"/>
<path fill="#65136D" opacity="1.000000" stroke="none" 
	d="
M135.950623,114.759422 
	C135.585403,114.625740 135.190186,114.166161 134.761993,113.398376 
	C135.126221,113.537956 135.523407,113.985741 135.950623,114.759422 
z"/>
<path fill="#65136D" opacity="1.000000" stroke="none" 
	d="
M132.823364,110.954117 
	C132.390457,111.005417 131.855179,110.760811 131.172729,110.256027 
	C131.590683,110.216644 132.155838,110.437424 132.823364,110.954117 
z"/>
<path fill="#65136D" opacity="1.000000" stroke="none" 
	d="
M133.806061,111.953819 
	C133.543716,112.060982 133.218674,111.878922 132.821838,111.394348 
	C133.081146,111.282745 133.412262,111.473671 133.806061,111.953819 
z"/>
<path fill="#65136D" opacity="1.000000" stroke="none" 
	d="
M134.816208,112.973007 
	C134.523453,113.094246 134.156128,112.928284 133.767151,112.449982 
	C134.077545,112.320358 134.409576,112.503090 134.816208,112.973007 
z"/>
</svg>